Coordinates
version=1
nRows=34
nColumns=38
inDegrees=no

Units are S.I. units (second, meters, Newtons, ...)
If the header above contains a line with 'inDegrees', this indicates whether rotational values are in degrees (yes) or radians (no).

endheader
time	pelvis_tilt	pelvis_list	pelvis_rotation	pelvis_tx	pelvis_ty	pelvis_tz	hip_flexion_r	hip_adduction_r	hip_rotation_r	knee_angle_r	ankle_angle_r	subtalar_angle_r	mtp_angle_r	hip_flexion_l	hip_adduction_l	hip_rotation_l	knee_angle_l	ankle_angle_l	subtalar_angle_l	mtp_angle_l	lumbar_extension	lumbar_bending	lumbar_rotation	arm_flex_r	arm_add_r	arm_rot_r	elbow_flex_r	pro_sup_r	wrist_flex_r	wrist_dev_r	arm_flex_l	arm_add_l	arm_rot_l	elbow_flex_l	pro_sup_l	wrist_flex_l	wrist_dev_l
2.23	0.839741	1.44272	0.651619	0.667742	-0.335076	1.01246	0.19	0.0531842	0.0852619	0.607996	-0.0634564	0	0	0.0947991	-0.177457	-0.22482	0.469807	-0.159903	0	0	-0.0512504	0.0518917	0.0194283	0.82208	-0.487338	1.07744	1.47688	1.5708	0	0	0.484605	-0.492318	0.667885	1.58935	1.5708	0	0
2.24	0.825134	1.4402	0.667369	0.667138	-0.332453	1.01185	0.190093	0.0532044	0.0848888	0.607551	-0.0619038	0	0	0.097905	-0.179108	-0.228528	0.475719	-0.158096	0	0	-0.0480168	0.0532888	0.01722	0.823735	-0.490976	1.08489	1.48402	1.5708	0	0	0.473512	-0.490899	0.661739	1.59816	1.5708	0	0
2.25	0.810276	1.43704	0.683095	0.666639	-0.329727	1.01113	0.190636	0.053969	0.0856295	0.607231	-0.0600573	0	0	0.102042	-0.181967	-0.234133	0.483508	-0.155926	0	0	-0.04448	0.053788	0.016971	0.820137	-0.497178	1.08596	1.49367	1.5708	0	0	0.462933	-0.48862	0.655371	1.60664	1.5708	0	0
2.26	0.802152	1.4351	0.692032	0.666156	-0.326938	1.01053	0.189517	0.0543172	0.0866118	0.606975	-0.0595929	0	0	0.103709	-0.183893	-0.238598	0.489161	-0.155547	0	0	-0.0422833	0.0521542	0.0215286	0.808188	-0.507937	1.07638	1.50588	1.5708	0	0	0.460345	-0.485634	0.658761	1.61152	1.5708	0	0
2.27	0.78849	1.43246	0.706833	0.66547	-0.32408	1.0098	0.189733	0.0543278	0.0870896	0.60732	-0.0577136	0	0	0.10747	-0.186007	-0.24402	0.496941	-0.153485	0	0	-0.0398049	0.0526935	0.0195775	0.801792	-0.514235	1.07366	1.5164	1.5708	0	0	0.445753	-0.483658	0.646399	1.62236	1.5708	0	0
2.28	0.765995	1.42861	0.730753	0.664721	-0.321154	1.00896	0.191958	0.0542653	0.0873678	0.607972	-0.0544581	0	0	0.113786	-0.18824	-0.249554	0.506214	-0.150072	0	0	-0.0371422	0.0473573	0.0293692	0.770886	-0.53167	1.03753	1.54148	1.5708	0	0	0.444841	-0.475316	0.64979	1.62904	1.5708	0	0
2.29	0.758379	1.42712	0.740118	0.663959	-0.318184	1.00833	0.190468	0.0536473	0.0870835	0.608173	-0.0533508	0	0	0.114505	-0.188669	-0.251672	0.51009	-0.149003	0	0	-0.0345033	0.0478561	0.0262964	0.763726	-0.537344	1.03385	1.55434	1.5708	0	0	0.432415	-0.475461	0.642168	1.63839	1.5708	0	0
2.3	0.744593	1.42505	0.755638	0.663215	-0.315128	1.00765	0.190007	0.0528944	0.0872489	0.608328	-0.0515162	0	0	0.116019	-0.188791	-0.253638	0.513465	-0.147384	0	0	-0.0323421	0.0459963	0.0248825	0.749769	-0.544861	1.02094	1.57255	1.5708	0	0	0.420469	-0.474297	0.634172	1.64972	1.5708	0	0
2.31	0.731076	1.42326	0.770039	0.662599	-0.312124	1.00697	0.189887	0.0522385	0.088811	0.60902	-0.0496553	0	0	0.116472	-0.188508	-0.255588	0.515316	-0.145592	0	0	-0.0297721	0.0443818	0.0238042	0.735627	-0.550754	1.00845	1.58854	1.5708	0	0	0.409178	-0.47281	0.626947	1.65973	1.5708	0	0
2.32	0.716439	1.42196	0.786036	0.66188	-0.309135	1.00632	0.189691	0.0508261	0.0896932	0.610099	-0.0476333	0	0	0.116584	-0.18716	-0.256185	0.51659	-0.143772	0	0	-0.0269157	0.0427347	0.0226784	0.722366	-0.555821	0.997704	1.60175	1.5708	0	0	0.399961	-0.470605	0.622377	1.66765	1.5708	0	0
2.33	0.704544	1.42102	0.799394	0.661103	-0.306149	1.00572	0.188756	0.0492424	0.0898715	0.610943	-0.0456242	0	0	0.115739	-0.185525	-0.256338	0.516957	-0.14199	0	0	-0.0240736	0.0413625	0.0222733	0.710245	-0.560471	0.988403	1.6125	1.5708	0	0	0.392807	-0.467881	0.620379	1.67369	1.5708	0	0
2.34	0.696118	1.42034	0.809153	0.660322	-0.303192	1.00516	0.187019	0.0477998	0.0899184	0.611311	-0.0437655	0	0	0.11406	-0.184016	-0.256651	0.516706	-0.140209	0	0	-0.0221997	0.0389344	0.0226098	0.699037	-0.565349	0.979414	1.62208	1.5708	0	0	0.387188	-0.464897	0.619383	1.67973	1.5708	0	0
2.35	0.689242	1.41993	0.816991	0.659556	-0.300285	1.00466	0.184862	0.0464222	0.0903997	0.611403	-0.0421143	0	0	0.111731	-0.18247	-0.257217	0.515888	-0.13854	0	0	-0.0208897	0.0359795	0.0237374	0.688469	-0.570392	0.970394	1.63077	1.5708	0	0	0.382327	-0.461371	0.618293	1.68537	1.5708	0	0
2.36	0.681697	1.41994	0.825215	0.658753	-0.297415	1.00421	0.182674	0.044514	0.0907178	0.611855	-0.0405843	0	0	0.108836	-0.180464	-0.258181	0.514421	-0.13713	0	0	-0.0198992	0.0325408	0.0253466	0.677839	-0.575444	0.960539	1.63907	1.5708	0	0	0.378206	-0.457449	0.617166	1.69028	1.5708	0	0
2.37	0.674146	1.42021	0.833456	0.657891	-0.294618	1.00379	0.18051	0.0422258	0.0905462	0.61264	-0.0389994	0	0	0.105612	-0.178012	-0.258807	0.512381	-0.135824	0	0	-0.0192281	0.0288775	0.0278205	0.665715	-0.580986	0.94815	1.64791	1.5708	0	0	0.376197	-0.453279	0.617915	1.69395	1.5708	0	0
2.38	0.66703	1.42061	0.841349	0.656984	-0.2919	1.00341	0.178464	0.0397635	0.0898236	0.613656	-0.0378198	0	0	0.102217	-0.175395	-0.258738	0.510048	-0.134706	0	0	-0.0185942	0.0252898	0.0306663	0.65311	-0.586674	0.935075	1.6567	1.5708	0	0	0.375454	-0.449005	0.619945	1.69635	1.5708	0	0
2.39	0.661197	1.42123	0.8479	0.65606	-0.289247	1.00302	0.176378	0.0372149	0.088627	0.61468	-0.0369698	0	0	0.0985009	-0.172814	-0.258686	0.507634	-0.133659	0	0	-0.0168723	0.0238117	0.031024	0.645114	-0.589974	0.928135	1.66208	1.5708	0	0	0.372187	-0.44594	0.619599	1.69773	1.5708	0	0
2.4	0.655029	1.42174	0.854766	0.655108	-0.286641	1.00261	0.174617	0.0346391	0.0870013	0.615849	-0.0362368	0	0	0.094852	-0.170255	-0.258695	0.50493	-0.13256	0	0	-0.0154803	0.0217965	0.0303384	0.638407	-0.592585	0.922718	1.66675	1.5708	0	0	0.367998	-0.443401	0.618103	1.70004	1.5708	0	0
2.41	0.648058	1.42219	0.862208	0.654136	-0.284085	1.00218	0.17323	0.0320888	0.085581	0.617621	-0.035443	0	0	0.0911648	-0.167584	-0.258718	0.501942	-0.131521	0	0	-0.0144107	0.0192831	0.029533	0.631998	-0.595032	0.917586	1.67124	1.5708	0	0	0.363683	-0.441163	0.616298	1.70296	1.5708	0	0
2.42	0.639226	1.42285	0.871359	0.65314	-0.281586	1.00179	0.172169	0.0292228	0.084306	0.620208	-0.0343062	0	0	0.0871434	-0.164295	-0.258449	0.498111	-0.130396	0	0	-0.0134918	0.0164817	0.02955	0.624511	-0.597754	0.911128	1.67603	1.5708	0	0	0.35966	-0.438053	0.614284	1.70521	1.5708	0	0
2.43	0.630497	1.42359	0.880294	0.652146	-0.279193	1.00143	0.171427	0.0263431	0.0837114	0.623061	-0.0333352	0	0	0.0832705	-0.161076	-0.258755	0.494781	-0.129607	0	0	-0.0122874	0.014121	0.0299998	0.617531	-0.600331	0.905221	1.67982	1.5708	0	0	0.35698	-0.435057	0.613621	1.70595	1.5708	0	0
2.44	0.62177	1.42456	0.889133	0.651131	-0.276886	1.00113	0.170703	0.0233988	0.0837201	0.626105	-0.0326362	0	0	0.0791639	-0.157665	-0.259179	0.491115	-0.129115	0	0	-0.0112287	0.0115322	0.0311788	0.610238	-0.602955	0.898529	1.68309	1.5708	0	0	0.356677	-0.432255	0.615267	1.70534	1.5708	0	0
2.45	0.611621	1.42584	0.899388	0.650065	-0.274666	1.00089	0.170231	0.0201241	0.0841645	0.630061	-0.0321465	0	0	0.0747065	-0.153712	-0.259307	0.486669	-0.128909	0	0	-0.0104783	0.00783691	0.03412	0.6008	-0.606449	0.888637	1.68688	1.5708	0	0	0.359978	-0.429176	0.620431	1.70305	1.5708	0	0
2.46	0.602296	1.42791	0.908665	0.649009	-0.272552	1.00076	0.169584	0.0164821	0.0845828	0.635295	-0.0319038	0	0	0.0686686	-0.148813	-0.258053	0.479765	-0.129923	0	0	-0.0103389	0.000821447	0.0476781	0.576335	-0.616116	0.860191	1.69604	1.5708	0	0	0.378964	-0.423274	0.644077	1.69295	1.5708	0	0
2.47	0.595949	1.42867	0.915293	0.647915	-0.270488	1.00051	0.169605	0.0141886	0.0852991	0.639822	-0.0315095	0	0	0.0650141	-0.14637	-0.25931	0.477125	-0.129355	0	0	-0.00830284	0.00219808	0.0391019	0.587752	-0.611914	0.874001	1.6899	1.5708	0	0	0.370272	-0.424249	0.633186	1.69463	1.5708	0	0
2.48	0.59262	1.43028	0.918773	0.646776	-0.268521	1.00041	0.169158	0.011644	0.0861494	0.645528	-0.0316059	0	0	0.0593052	-0.143134	-0.259431	0.471622	-0.129746	0	0	-0.00770533	0.00126439	0.0389687	0.586177	-0.612363	0.871085	1.68875	1.5708	0	0	0.373727	-0.422463	0.636308	1.69041	1.5708	0	0
2.49	0.590357	1.43189	0.921124	0.645586	-0.266638	1.00038	0.169035	0.00929047	0.0871258	0.651513	-0.0321243	0	0	0.0532923	-0.139859	-0.259556	0.465281	-0.130472	0	0	-0.0076898	0.000651167	0.0385672	0.585228	-0.612561	0.86809	1.68744	1.5708	0	0	0.376998	-0.420115	0.638328	1.68601	1.5708	0	0
2.5	0.590718	1.43452	0.920578	0.644334	-0.264853	1.00048	0.168598	0.00659681	0.0883422	0.65906	-0.0355369	0	0	0.0448712	-0.13538	-0.258192	0.455442	-0.133146	0	0	-0.00899024	-0.00230351	0.0455267	0.57404	-0.617264	0.852319	1.69002	1.5708	0	0	0.389968	-0.414747	0.65164	1.67622	1.5708	0	0
2.51	0.589465	1.43597	0.921596	0.643054	-0.263146	1.00049	0.169722	0.00465426	0.0899604	0.666738	-0.0376669	0	0	0.038532	-0.132108	-0.258381	0.448052	-0.134456	0	0	-0.00919942	-0.00299464	0.0457354	0.573649	-0.61798	0.849556	1.68804	1.5708	0	0	0.393787	-0.410873	0.653572	1.67036	1.5708	0	0
2.52	0.586844	1.43718	0.923658	0.641776	-0.261539	1.00054	0.171943	0.0028519	0.0923183	0.675921	-0.040307	0	0	0.0324271	-0.128844	-0.258475	0.440097	-0.136193	0	0	-0.00934992	-0.00360199	0.0457463	0.574064	-0.618334	0.847485	1.6853	1.5708	0	0	0.39807	-0.407252	0.655884	1.6642	1.5708	0	0
2.53	0.582483	1.43828	0.927247	0.640492	-0.260024	1.00063	0.175053	0.00103526	0.0955464	0.686321	-0.042915	0	0	0.0267309	-0.125575	-0.258764	0.432437	-0.137813	0	0	-0.00982417	-0.00434205	0.0449718	0.575881	-0.618045	0.846593	1.68155	1.5708	0	0	0.401859	-0.403947	0.657212	1.65847	1.5708	0	0
2.54	0.580635	1.43948	0.92835	0.639194	-0.258607	1.00081	0.178735	-0.000557958	0.099435	0.697526	-0.0456109	0	0	0.0212656	-0.122639	-0.259468	0.42593	-0.13911	0	0	-0.0107893	-0.0050059	0.0434693	0.579464	-0.61717	0.847337	1.67621	1.5708	0	0	0.405509	-0.400824	0.65788	1.65257	1.5708	0	0
2.55	0.584782	1.44068	0.92363	0.637852	-0.257302	1.00104	0.182301	-0.00151859	0.103184	0.708344	-0.0475114	0	0	0.0161713	-0.120683	-0.260955	0.42126	-0.139824	0	0	-0.0118111	-0.00373742	0.0408957	0.58563	-0.615733	0.850694	1.66931	1.5708	0	0	0.409014	-0.398152	0.657889	1.64567	1.5708	0	0
2.56	0.590125	1.44277	0.91691	0.636567	-0.256152	1.00139	0.187207	-0.00263115	0.108425	0.724009	-0.0584571	0	0	0.00913405	-0.117702	-0.261724	0.413539	-0.144698	0	0	-0.0122361	-0.000667239	0.0324358	0.604068	-0.608641	0.868428	1.65388	1.5708	0	0	0.407421	-0.398905	0.651575	1.63958	1.5708	0	0
